# xmcd CD database file
#
# Track frame offsets:
#	150
#	22132
#	45704
#	67239
#	86517
#	103698
#	123066
#	142491
#	161723
#
# Disc length: 2521 seconds
#
# Revision: 0
# Processed by: cddbd v1.5.2PL0 Copyright (c) Steve Scherf et al.
# Submitted via: CDex 1.70beta2
#
DISCID=8409d709
DTITLE=Papo Pepin y su Orquesta - Y Ponte en Vela
DYEAR=1900
DGENRE=Salsa
TTITLE0=Buenos Dias America
TTITLE1=Aconsejala
TTITLE2=De Carambola
TTITLE3=Con Las Glorias
TTITLE4=Tumba El Quinto
TTITLE5=Campanero
TTITLE6=Our Day Will Come
TTITLE7=Ponte En Vela
TTITLE8=Yimbaraco
EXTD=
EXTT0=
EXTT1=
EXTT2=
EXTT3=
EXTT4=
EXTT5=
EXTT6=
EXTT7=
EXTT8=
PLAYORDER=
